# xmcd
#
# Track frame offsets: 
#        150
#        13561
#        26261
#        35915
#        51076
#        67285
#        78355
#        89484
#        106169
#        117744
#        128939
#        141503
#
# Disc length: 2085 seconds
#
# Revision: 0
# Processed by: cddbd v1.5.2PL0 Copyright (c) Steve Scherf et al.
# Submitted via: ExactAudioCopyFreeDBPlugin 1.0
#
DISCID=ad08230c
DTITLE=Tony Booth - Old School
DYEAR=1900
DGENRE=Country
TTITLE0=Almost Like You Never Went Away
TTITLE1=You're Still In These Carzy Arms Of Mine
TTITLE2=I'm Sorry If My Love Got In Your Way
TTITLE3=Little Old Dime
TTITLE4=I'll Give Up
TTITLE5=The One You Slip Around With
TTITLE6=How 'Bout Never
TTITLE7=Bridge To Memory Lane
TTITLE8=How Long Is Forever (Duet With Willie Nelson)
TTITLE9=I Take The Fifth
TTITLE10=Signed, Sealed and Delivered
TTITLE11=When Tomorrow Starts Without Me
EXTD=
EXTT0=
EXTT1=
EXTT2=
EXTT3=
EXTT4=
EXTT5=
EXTT6=
EXTT7=
EXTT8=
EXTT9=
EXTT10=
EXTT11=
PLAYORDER=
